<svg
  version="1.1"
  id="Layer_1"
  xmlns="http://www.w3.org/2000/svg"
  xmlns:xlink="http://www.w3.org/1999/xlink"
  x="0px"
  y="0px"
  width="100%"
  viewBox="0 0 128 128"
  enable-background="new 0 0 128 128"
  xml:space="preserve"
>
  <path
    fill="#63B3ED"
    opacity="1.000000"
    stroke="none"
    d="
M1.000001,81.000000 
	C1.000000,70.645775 1.000000,60.291546 1.295580,49.807533 
	C3.886154,44.450611 5.873635,39.061054 8.532820,34.026264 
	C17.093693,17.817467 30.407223,7.502193 48.151707,2.860123 
	C48.568172,2.751173 48.723087,1.642413 49.000000,1.000000 
	C59.354229,1.000000 69.708458,1.000000 80.192505,1.295498 
	C81.916100,2.248558 83.487671,2.967366 85.107002,3.554412 
	C106.421944,11.281557 120.806808,25.576502 127.081543,47.640606 
	C127.248611,48.228085 128.339783,48.552765 129.000000,49.000000 
	C129.000000,59.354229 129.000000,69.708458 128.704712,80.192444 
	C128.041031,80.653976 127.447845,80.923569 127.336426,81.326416 
	C120.753159,105.127594 105.596687,120.373352 81.845840,127.138283 
	C81.421562,127.259125 81.275749,128.357666 81.000000,129.000000 
	C70.645775,129.000000 60.291546,129.000000 49.807514,128.704956 
	C48.085388,127.749596 46.516651,127.024010 44.897179,126.438828 
	C23.564026,118.730278 9.210177,104.406395 2.918215,82.357346 
	C2.750678,81.770241 1.660121,81.446533 1.000001,81.000000 
M54.126179,56.671875 
	C58.598312,52.197300 63.039616,47.691319 67.554131,43.259926 
	C70.264664,40.599308 71.604294,37.669476 68.547081,34.625504 
	C65.391953,31.484051 62.548401,33.246853 59.951096,35.863785 
	C53.266304,42.599098 46.535774,49.289001 39.826199,55.999725 
	C30.839659,64.987785 30.844519,64.985092 39.784424,73.923744 
	C46.612747,80.751114 53.435326,87.584244 60.249287,94.425949 
	C62.755131,96.942001 65.568558,98.310654 68.498138,95.422813 
	C71.568825,92.395905 70.347290,89.433670 67.610092,86.782906 
	C65.816490,85.045944 64.075424,83.254723 62.311462,81.487175 
	C58.900703,78.069496 55.490398,74.651382 51.109310,70.260735 
	C54.397694,70.260735 56.029522,70.260788 57.661346,70.260719 
	C68.316345,70.260284 78.971542,70.222847 89.626236,70.278999 
	C93.465508,70.299225 97.011513,69.738121 96.876892,64.932793 
	C96.745323,60.236546 93.180405,59.635426 89.369690,59.727703 
	C86.707512,59.792168 84.042496,59.739388 81.378746,59.739361 
	C71.788979,59.739258 62.199207,59.739319 51.823498,59.739319 
	C52.754814,58.409767 53.185341,57.795147 54.126179,56.671875 
z"
  />
  <path
    fill="#FAFEFF"
    opacity="1.000000"
    stroke="none"
    d="
M53.871021,56.926201 
	C53.185341,57.795147 52.754814,58.409767 51.823498,59.739319 
	C62.199207,59.739319 71.788979,59.739258 81.378746,59.739361 
	C84.042496,59.739388 86.707512,59.792168 89.369690,59.727703 
	C93.180405,59.635426 96.745323,60.236546 96.876892,64.932793 
	C97.011513,69.738121 93.465508,70.299225 89.626236,70.278999 
	C78.971542,70.222847 68.316345,70.260284 57.661346,70.260719 
	C56.029522,70.260788 54.397694,70.260735 51.109310,70.260735 
	C55.490398,74.651382 58.900703,78.069496 62.311462,81.487175 
	C64.075424,83.254723 65.816490,85.045944 67.610092,86.782906 
	C70.347290,89.433670 71.568825,92.395905 68.498138,95.422813 
	C65.568558,98.310654 62.755131,96.942001 60.249287,94.425949 
	C53.435326,87.584244 46.612747,80.751114 39.784424,73.923744 
	C30.844519,64.985092 30.839659,64.987785 39.826199,55.999725 
	C46.535774,49.289001 53.266304,42.599098 59.951096,35.863785 
	C62.548401,33.246853 65.391953,31.484051 68.547081,34.625504 
	C71.604294,37.669476 70.264664,40.599308 67.554131,43.259926 
	C63.039616,47.691319 58.598312,52.197300 53.871021,56.926201 
z"
  />
</svg>
