<svg
  version="1.1"
  id="Layer_1"
  xmlns="http://www.w3.org/2000/svg"
  xmlns:xlink="http://www.w3.org/1999/xlink"
  x="0px"
  y="0px"
  width="100%"
  viewBox="0 0 128 128"
  enable-background="new 0 0 128 128"
  xml:space="preserve"
>
  <path
    fill="#63B3ED"
    opacity="1.000000"
    stroke="none"
    d="
M0.999999,81.000000 
	C1.000000,70.645775 1.000000,60.291546 1.292171,49.808899 
	C3.686846,44.664433 5.390626,39.432861 7.964313,34.671505 
	C16.769182,18.382362 30.018694,7.518908 48.128387,2.849486 
	C48.549862,2.740813 48.715195,1.638721 49.000000,1.000000 
	C59.354229,1.000000 69.708458,1.000000 80.191002,1.292374 
	C81.915154,2.238907 83.490334,2.949844 85.109932,3.538627 
	C106.413078,11.283111 120.812378,25.569738 127.086494,47.637451 
	C127.253662,48.225449 128.341507,48.551693 129.000000,49.000000 
	C129.000000,59.354229 129.000000,69.708458 128.708008,80.190872 
	C126.315994,85.333008 124.598404,90.551460 122.046509,95.323784 
	C113.294319,111.691261 99.871819,122.338707 81.869972,127.150002 
	C81.445488,127.263451 81.284103,128.361313 81.000000,129.000000 
	C70.645775,129.000000 60.291546,129.000000 49.809074,128.708252 
	C48.086159,127.758606 46.513870,127.038879 44.893421,126.452164 
	C23.568609,118.731148 9.204193,104.413345 2.913300,82.361214 
	C2.745607,81.773384 1.658403,81.447853 0.999999,81.000000 
M94.877930,39.356274 
	C93.015083,38.816162 91.155739,37.821609 89.288841,37.807232 
	C73.149986,37.682983 57.009682,37.703671 40.870029,37.753326 
	C35.800823,37.768921 33.044128,40.100922 33.025051,44.084988 
	C33.006145,48.033218 35.831558,50.617794 40.791363,50.645641 
	C56.930641,50.736259 73.071678,50.780842 89.210098,50.632275 
	C96.169167,50.568207 98.544945,46.240841 94.877930,39.356274 
M46.608978,79.311409 
	C43.955059,79.374626 41.263615,79.181602 38.656361,79.563446 
	C35.089779,80.085785 32.943439,82.389854 33.090221,86.067459 
	C33.234428,89.680588 35.335552,92.127281 39.042065,92.152550 
	C56.317696,92.270332 73.594894,92.263931 90.870728,92.163521 
	C94.583412,92.141937 96.716072,89.749794 96.902916,86.145477 
	C97.092857,82.481178 94.969566,80.245529 91.417107,79.549789 
	C89.968842,79.266167 88.442947,79.322586 86.952255,79.320831 
	C73.828087,79.305336 60.703896,79.311600 46.608978,79.311409 
M39.889874,58.593647 
	C35.553204,58.863422 32.817585,61.045734 33.141830,65.501221 
	C33.470844,70.022186 36.755241,71.443146 40.913528,71.434540 
	C53.241703,71.409012 65.569977,71.437210 77.898193,71.426552 
	C82.228638,71.422806 86.567177,71.519669 90.886963,71.288902 
	C94.566391,71.092339 96.798653,68.840446 96.881607,65.191917 
	C96.970428,61.285667 94.696136,59.056858 90.783485,58.668850 
	C89.461884,58.537788 88.121399,58.573349 86.789536,58.573036 
	C71.462540,58.569408 56.135551,58.573540 39.889874,58.593647 
z"
  />
  <path
    fill="#F7FBFF"
    opacity="1.000000"
    stroke="none"
    d="
M95.158905,39.657471 
	C98.544945,46.240841 96.169167,50.568207 89.210098,50.632275 
	C73.071678,50.780842 56.930641,50.736259 40.791363,50.645641 
	C35.831558,50.617794 33.006145,48.033218 33.025051,44.084988 
	C33.044128,40.100922 35.800823,37.768921 40.870029,37.753326 
	C57.009682,37.703671 73.149986,37.682983 89.288841,37.807232 
	C91.155739,37.821609 93.015083,38.816162 95.158905,39.657471 
z"
  />
  <path
    fill="#F7FBFF"
    opacity="1.000000"
    stroke="none"
    d="
M47.094345,79.311417 
	C60.703896,79.311600 73.828087,79.305336 86.952255,79.320831 
	C88.442947,79.322586 89.968842,79.266167 91.417107,79.549789 
	C94.969566,80.245529 97.092857,82.481178 96.902916,86.145477 
	C96.716072,89.749794 94.583412,92.141937 90.870728,92.163521 
	C73.594894,92.263931 56.317696,92.270332 39.042065,92.152550 
	C35.335552,92.127281 33.234428,89.680588 33.090221,86.067459 
	C32.943439,82.389854 35.089779,80.085785 38.656361,79.563446 
	C41.263615,79.181602 43.955059,79.374626 47.094345,79.311417 
z"
  />
  <path
    fill="#FEFFFF"
    opacity="1.000000"
    stroke="none"
    d="
M40.349216,58.584625 
	C56.135551,58.573540 71.462540,58.569408 86.789536,58.573036 
	C88.121399,58.573349 89.461884,58.537788 90.783485,58.668850 
	C94.696136,59.056858 96.970428,61.285667 96.881607,65.191917 
	C96.798653,68.840446 94.566391,71.092339 90.886963,71.288902 
	C86.567177,71.519669 82.228638,71.422806 77.898193,71.426552 
	C65.569977,71.437210 53.241703,71.409012 40.913528,71.434540 
	C36.755241,71.443146 33.470844,70.022186 33.141830,65.501221 
	C32.817585,61.045734 35.553204,58.863422 40.349216,58.584625 
z"
  />
</svg>
