<svg version="1.1" id="Layer_1" xmlns="http://www.w3.org/2000/svg" xmlns:xlink="http://www.w3.org/1999/xlink" x="0px" y="0px"
	 width="100%" viewBox="0 0 515 140" enable-background="new 0 0 515 140" xml:space="preserve">
<path fill="#FCFCFC" opacity="1.000000" stroke="none" 
	d="
M344.000000,141.000000 
	C229.333328,141.000000 115.166664,141.000000 1.000000,141.000000 
	C1.000000,94.333336 1.000000,47.666668 1.000000,1.000000 
	C172.666672,1.000000 344.333344,1.000000 516.000000,1.000000 
	C516.000000,47.666668 516.000000,94.333336 516.000000,141.000000 
	C458.833344,141.000000 401.666656,141.000000 344.000000,141.000000 
M97.158508,61.500031 
	C97.158455,54.835632 97.184547,48.171101 97.150589,41.506874 
	C97.120102,35.524925 98.254082,29.196978 90.616203,24.543760 
	C96.281609,24.543760 100.117119,24.757376 103.918663,24.489368 
	C108.608124,24.158764 110.413406,25.820604 110.337166,30.734262 
	C110.089043,46.725388 110.244270,62.722778 110.244423,78.717758 
	C110.244576,94.712738 110.174065,110.708443 110.338898,126.701721 
	C110.358513,128.605042 111.108452,131.394958 112.469040,132.233109 
	C117.900742,135.579163 123.459442,132.182053 123.462761,125.853188 
	C123.477432,97.861992 123.478531,69.870773 123.462440,41.879578 
	C123.458916,35.745316 124.367859,29.325703 117.223190,24.543570 
	C122.098732,24.543570 125.586243,24.538818 129.073746,24.544558 
	C136.365997,24.556557 136.620468,24.798899 136.622055,32.145683 
	C136.628876,63.635799 136.702377,95.126297 136.544830,126.615623 
	C136.520508,131.479431 138.274307,133.126160 142.993668,132.914352 
	C149.000275,132.644806 149.761658,132.199280 149.771606,126.427834 
	C149.798050,111.099358 149.780640,95.770805 149.780182,80.442284 
	C149.779633,61.781479 149.812683,43.120564 149.753296,24.459942 
	C149.738800,19.904041 149.368591,15.401035 144.606186,12.856665 
	C136.713196,8.639729 121.705124,11.804588 116.424911,18.963562 
	C115.098511,13.363995 110.972916,11.663055 105.959839,11.512953 
	C100.632866,11.353452 95.290558,11.634143 89.968407,11.407169 
	C85.411163,11.212819 83.952858,13.020585 83.972099,17.585880 
	C84.125175,53.907166 84.123085,90.229645 83.978844,126.551003 
	C83.959572,131.403839 85.726723,133.090424 90.438301,132.908936 
	C96.587166,132.672073 97.147881,132.382370 97.152138,126.479927 
	C97.167526,105.153313 97.158401,83.826668 97.158508,61.500031 
M248.001724,62.500000 
	C248.001343,83.983330 248.037857,105.466782 247.963135,126.949852 
	C247.951096,130.410629 248.567245,132.883041 252.742874,132.850983 
	C260.736176,132.789642 268.737335,133.036240 276.721985,132.765305 
	C283.802582,132.525040 287.116577,129.115128 287.229095,122.146011 
	C287.395752,111.823387 287.273376,101.496094 287.275452,91.170792 
	C287.276489,85.967461 285.245392,82.174118 279.547455,80.530952 
	C284.877563,78.232155 287.358337,74.458046 287.317139,68.844368 
	C287.204651,53.523743 287.360382,38.201115 287.242035,22.880575 
	C287.181152,14.999142 283.879333,11.709157 275.911591,11.512283 
	C268.421967,11.327223 260.922150,11.574217 253.430847,11.427286 
	C249.393127,11.348093 247.873108,12.878414 247.926804,17.035461 
	C248.118225,31.854824 248.001678,46.678165 248.001724,62.500000 
M336.609985,71.500122 
	C336.609192,55.684883 336.668915,39.869320 336.583984,24.054533 
	C336.536163,15.150170 333.281067,11.709278 324.809540,11.474265 
	C319.486389,11.326591 314.152252,11.322819 308.829376,11.474740 
	C300.577484,11.710259 297.140106,15.236976 297.126068,23.629446 
	C297.072113,55.925827 297.077881,88.222382 297.119598,120.518799 
	C297.130981,129.331055 300.686615,132.751724 309.658081,132.844803 
	C314.152466,132.891434 318.647736,132.863892 323.142578,132.850540 
	C333.373871,132.820160 336.581635,129.656723 336.601654,119.446533 
	C336.632324,103.797791 336.609558,88.148933 336.609985,71.500122 
M431.701874,45.529388 
	C431.223846,38.344620 433.752808,30.416012 426.067963,25.033171 
	C426.912018,24.788254 427.229401,24.618740 427.548492,24.615501 
	C430.879761,24.581650 434.211304,24.557222 437.542725,24.563519 
	C444.489014,24.576649 444.775970,24.864811 444.777161,31.946878 
	C444.782410,63.598907 444.851593,95.251274 444.701874,126.902603 
	C444.679688,131.593811 446.477356,133.038254 450.909332,132.937210 
	C455.013123,132.843658 458.005768,132.589676 457.983948,127.169884 
	C457.844452,92.519798 457.954071,57.868782 457.874603,23.218323 
	C457.856201,15.189416 454.311493,11.680029 446.255646,11.480411 
	C439.263153,11.307143 432.262970,11.422647 425.266296,11.445971 
	C418.776733,11.467605 418.430786,11.797587 418.426819,18.157167 
	C418.413452,39.647209 418.424652,61.137260 418.424957,82.627312 
	C418.425140,97.287193 418.349091,111.947884 418.510742,126.605980 
	C418.531952,128.530487 419.189301,131.328186 420.537262,132.202454 
	C425.814392,135.625168 431.692627,132.174042 431.695801,125.983459 
	C431.709351,99.495720 431.701660,73.007957 431.701874,45.529388 
M355.951172,132.803497 
	C359.356079,132.367065 359.514740,129.866837 359.512146,127.238464 
	C359.504089,119.075104 359.484802,110.911613 359.520752,102.748398 
	C359.546204,96.969460 359.931396,91.100143 352.497650,86.846603 
	C358.361786,86.846603 362.343262,87.105110 366.276581,86.780571 
	C371.093903,86.383118 372.818420,88.255867 372.726135,93.052269 
	C372.505005,104.543358 372.787872,116.043831 372.594421,127.535919 
	C372.513794,132.325699 375.085205,132.935028 378.930969,132.904236 
	C382.785187,132.873337 385.918060,132.691910 385.854126,127.512039 
	C385.706116,115.518700 385.858490,103.521957 385.780243,91.527306 
	C385.746704,86.389481 383.816223,82.302193 378.060394,80.483459 
	C384.453827,77.688255 385.897278,72.780708 385.852234,66.820358 
	C385.727539,50.327953 385.650635,33.831589 385.900757,17.342033 
	C385.980804,12.066402 383.390656,11.398098 379.105774,11.367636 
	C374.686829,11.336221 372.462677,12.323559 372.549622,17.466534 
	C372.831146,34.121716 372.672882,50.784683 372.643219,67.444580 
	C372.632965,73.202934 371.871460,73.628685 365.839539,73.897530 
	C361.056335,74.110695 359.377838,72.316025 359.435577,67.526253 
	C359.636230,50.868748 359.537567,34.207256 359.495880,17.547421 
	C359.481445,11.777363 358.959747,11.614142 352.559601,11.382802 
	C347.808563,11.211070 346.114044,12.928921 346.181274,17.750990 
	C346.406586,33.907993 346.375275,50.071194 346.211456,66.229683 
	C346.148712,72.419060 347.380646,77.653854 353.814545,80.455833 
	C347.724884,83.502670 346.334381,85.668289 346.286530,92.489662 
	C346.212891,102.984909 346.266785,113.481056 346.266632,123.976822 
	C346.266479,132.849930 346.266510,132.849930 355.951172,132.803497 
M480.859436,104.488876 
	C480.859161,82.825256 480.825012,61.161545 480.882050,39.498074 
	C480.896637,33.957611 480.688080,28.598572 474.362915,24.538939 
	C479.508698,24.538939 483.324188,24.524197 487.139526,24.542261 
	C493.474487,24.572254 493.744873,24.985739 494.005219,31.339661 
	C494.086060,33.313126 494.671112,36.639832 495.712891,36.937042 
	C498.597351,37.759979 502.015442,37.905609 504.865753,37.082798 
	C506.046478,36.741959 506.660614,33.295673 506.919464,31.186451 
	C507.261963,28.395599 507.076691,25.528637 506.988220,22.698454 
	C506.760864,15.425105 503.557098,11.896589 496.356964,11.560399 
	C490.370972,11.280900 484.352570,11.278974 478.365631,11.542558 
	C471.034393,11.865330 467.806763,15.214573 467.787811,22.622948 
	C467.703461,55.618092 467.708008,88.613663 467.779602,121.608864 
	C467.796051,129.194382 471.150177,132.541229 478.756409,132.798340 
	C484.249390,132.984009 489.755524,132.930496 495.252380,132.817780 
	C503.538025,132.647873 506.953430,129.121185 506.991486,120.745850 
	C507.041443,109.747612 507.005035,98.748985 507.003571,87.750526 
	C507.002106,76.570244 503.963684,73.628235 492.729156,73.815712 
	C490.138214,73.858948 487.174316,73.724976 487.383392,77.298798 
	C487.581726,80.689148 485.127747,85.121574 490.683838,87.030235 
	C492.074707,87.508034 493.725403,89.713310 493.780975,91.180527 
	C494.083435,99.167938 494.027283,107.175430 493.825226,115.169212 
	C493.790558,116.541100 492.788849,118.598473 491.669006,119.115326 
	C485.413422,122.002495 480.865387,118.878334 480.859772,111.983147 
	C480.858002,109.816780 480.859436,107.650421 480.859436,104.488876 
M171.869141,24.552610 
	C179.202087,24.552446 186.540512,24.380484 193.865967,24.614721 
	C198.469254,24.761919 199.039993,22.211750 198.961319,18.595127 
	C198.883942,15.038509 199.510773,11.324190 194.011993,11.421474 
	C186.181534,11.560007 178.340607,11.268359 170.515823,11.521064 
	C162.963165,11.764980 159.572586,15.119933 159.542053,22.802685 
	C159.410904,55.800350 159.404480,88.799232 159.554916,121.796745 
	C159.589310,129.337692 163.181976,132.631958 170.781158,132.807373 
	C178.443344,132.984253 186.114563,132.746262 193.778366,132.883636 
	C198.622543,132.970474 198.983368,130.047440 198.984131,126.311066 
	C198.984909,122.458389 198.828033,119.212509 193.620926,119.414124 
	C188.961563,119.594528 184.289566,119.452072 179.623154,119.446632 
	C172.753296,119.438622 173.117126,119.411613 172.641418,112.474426 
	C172.047226,103.809525 175.970566,94.146324 166.608398,86.851547 
	C169.771362,86.851547 171.934570,86.851776 174.097794,86.851494 
	C176.431000,86.851189 178.813461,87.138176 181.080399,86.750328 
	C182.634506,86.484436 184.804901,85.639061 185.362625,84.433891 
	C188.219742,78.260216 185.325073,73.775955 178.588470,73.886078 
	C174.361389,73.955185 172.564621,72.541534 172.665497,68.103745 
	C172.888885,58.276047 172.688431,48.439445 172.749069,38.607014 
	C172.781387,33.365868 172.256332,28.404594 166.546234,24.832609 
	C168.716034,24.695322 169.845016,24.623888 171.869141,24.552610 
M25.056345,79.500000 
	C25.055916,95.331375 24.995239,111.163300 25.139505,126.993355 
	C25.155594,128.758667 26.038176,131.799973 27.033587,132.030899 
	C29.979959,132.714386 33.364784,132.875717 36.199688,132.006714 
	C37.353180,131.653137 38.063427,128.118988 38.072342,126.028122 
	C38.192360,97.865372 38.162537,69.701942 38.145214,41.538692 
	C38.141525,35.541790 39.227001,29.209272 31.653423,24.539970 
	C37.749557,24.539970 42.080326,24.354975 46.387844,24.592186 
	C50.665211,24.827736 51.534351,22.509850 51.254860,19.000097 
	C50.998291,15.778137 52.615501,11.464008 46.827717,11.472207 
	C36.662392,11.486608 26.495613,11.395331 16.333359,11.572609 
	C14.948573,11.596766 12.862048,12.569794 12.334661,13.686418 
	C9.536110,19.611725 12.637542,24.628769 19.000162,24.475725 
	C23.428980,24.369196 25.216795,25.787731 25.146194,30.507179 
	C24.906927,46.501652 25.055920,62.501938 25.056345,79.500000 
M408.754028,61.500057 
	C408.753723,47.346382 408.755249,33.192711 408.752319,19.039036 
	C408.750854,11.886129 408.399445,11.480624 402.248413,11.453953 
	C395.723969,11.425662 395.525024,11.647472 395.523468,19.239834 
	C395.519714,37.389862 395.524078,55.539890 395.524139,73.689919 
	C395.524231,91.340401 395.461639,108.991409 395.610413,126.640633 
	C395.626556,128.557434 396.288574,131.368134 397.629852,132.216309 
	C402.987854,135.604553 408.744781,132.176605 408.748718,125.941895 
	C408.762085,104.794624 408.753906,83.647339 408.754028,61.500057 
M61.098846,89.499992 
	C61.098949,101.815620 61.083092,114.131287 61.106190,126.446869 
	C61.117027,132.225067 61.834698,132.652252 67.869308,132.903870 
	C72.571167,133.099915 74.361938,131.501892 74.291939,126.591759 
	C74.049980,109.619583 74.195496,92.641869 74.195572,75.666267 
	C74.195656,56.194256 74.229668,36.722099 74.143372,17.250477 
	C74.135880,15.560985 73.595863,12.555950 72.867905,12.415318 
	C69.688667,11.801141 66.222862,11.488892 63.135212,12.221845 
	C62.052250,12.478919 61.196171,16.042494 61.184364,18.101645 
	C61.049843,41.567150 61.098869,65.033707 61.098846,89.499992 
z"/>
<path fill="#3E434B" opacity="1.000000" stroke="none" 
	d="
M97.158524,62.000034 
	C97.158401,83.826668 97.167526,105.153313 97.152138,126.479927 
	C97.147881,132.382370 96.587166,132.672073 90.438301,132.908936 
	C85.726723,133.090424 83.959572,131.403839 83.978844,126.551003 
	C84.123085,90.229645 84.125175,53.907166 83.972099,17.585880 
	C83.952858,13.020585 85.411163,11.212819 89.968407,11.407169 
	C95.290558,11.634143 100.632866,11.353452 105.959839,11.512953 
	C110.972916,11.663055 115.098511,13.363995 116.424911,18.963562 
	C121.705124,11.804588 136.713196,8.639729 144.606186,12.856665 
	C149.368591,15.401035 149.738800,19.904041 149.753296,24.459942 
	C149.812683,43.120564 149.779633,61.781479 149.780182,80.442284 
	C149.780640,95.770805 149.798050,111.099358 149.771606,126.427834 
	C149.761658,132.199280 149.000275,132.644806 142.993668,132.914352 
	C138.274307,133.126160 136.520508,131.479431 136.544830,126.615623 
	C136.702377,95.126297 136.628876,63.635799 136.622055,32.145683 
	C136.620468,24.798899 136.365997,24.556557 129.073746,24.544558 
	C125.586243,24.538818 122.098732,24.543570 117.223190,24.543570 
	C124.367859,29.325703 123.458916,35.745316 123.462440,41.879578 
	C123.478531,69.870773 123.477432,97.861992 123.462761,125.853188 
	C123.459442,132.182053 117.900742,135.579163 112.469040,132.233109 
	C111.108452,131.394958 110.358513,128.605042 110.338898,126.701721 
	C110.174065,110.708443 110.244576,94.712738 110.244423,78.717758 
	C110.244270,62.722778 110.089043,46.725388 110.337166,30.734262 
	C110.413406,25.820604 108.608124,24.158764 103.918663,24.489368 
	C100.117119,24.757376 96.281609,24.543760 90.616203,24.543760 
	C98.254082,29.196978 97.120102,35.524925 97.150589,41.506874 
	C97.184547,48.171101 97.158455,54.835632 97.158524,62.000034 
z"/>
<path fill="#3D424A" opacity="1.000000" stroke="none" 
	d="
M248.001724,62.000000 
	C248.001678,46.678165 248.118225,31.854824 247.926804,17.035461 
	C247.873108,12.878414 249.393127,11.348093 253.430847,11.427286 
	C260.922150,11.574217 268.421967,11.327223 275.911591,11.512283 
	C283.879333,11.709157 287.181152,14.999142 287.242035,22.880575 
	C287.360382,38.201115 287.204651,53.523743 287.317139,68.844368 
	C287.358337,74.458046 284.877563,78.232155 279.547455,80.530952 
	C285.245392,82.174118 287.276489,85.967461 287.275452,91.170792 
	C287.273376,101.496094 287.395752,111.823387 287.229095,122.146011 
	C287.116577,129.115128 283.802582,132.525040 276.721985,132.765305 
	C268.737335,133.036240 260.736176,132.789642 252.742874,132.850983 
	C248.567245,132.883041 247.951096,130.410629 247.963135,126.949852 
	C248.037857,105.466782 248.001343,83.983330 248.001724,62.000000 
M261.913391,72.373749 
	C265.093933,72.791321 268.280640,73.506607 271.451111,73.440529 
	C272.372253,73.421333 274.009155,71.177124 274.025818,69.935562 
	C274.210907,56.117657 274.208069,42.295506 274.029907,28.477419 
	C274.013855,27.232065 272.492188,25.003765 271.552856,24.939468 
	C266.427521,24.588659 261.265625,24.772530 257.486511,24.772530 
	C258.743286,28.957020 260.736115,32.802914 260.921326,36.733982 
	C261.468964,48.355942 261.302338,60.011562 261.913391,72.373749 
M261.054810,96.939545 
	C261.064056,101.596062 261.078766,106.252579 261.081390,110.909096 
	C261.086365,119.670639 261.915955,120.551682 270.436432,119.308258 
	C271.809265,119.107918 273.918793,117.048050 273.965424,115.784195 
	C274.278076,107.314537 274.255798,98.823265 273.972107,90.351402 
	C273.932281,89.161552 271.940033,87.134659 270.734802,87.043785 
	C265.742737,86.667427 260.705811,86.885857 256.364563,86.885857 
	C258.007965,90.137062 259.503998,93.096786 261.054810,96.939545 
z"/>
<path fill="#41464D" opacity="1.000000" stroke="none" 
	d="
M336.609741,72.000122 
	C336.609558,88.148933 336.632324,103.797791 336.601654,119.446533 
	C336.581635,129.656723 333.373871,132.820160 323.142578,132.850540 
	C318.647736,132.863892 314.152466,132.891434 309.658081,132.844803 
	C300.686615,132.751724 297.130981,129.331055 297.119598,120.518799 
	C297.077881,88.222382 297.072113,55.925827 297.126068,23.629446 
	C297.140106,15.236976 300.577484,11.710259 308.829376,11.474740 
	C314.152252,11.322819 319.486389,11.326591 324.809540,11.474265 
	C333.281067,11.709278 336.536163,15.150170 336.583984,24.054533 
	C336.668915,39.869320 336.609192,55.684883 336.609741,72.000122 
M312.580841,24.549984 
	C310.162354,24.549984 307.743835,24.549984 305.325348,24.549984 
	C310.048920,28.414957 310.260498,33.301815 310.250916,38.373653 
	C310.203857,63.203033 310.196808,88.032692 310.296692,112.861763 
	C310.304840,114.878387 310.835541,118.382095 311.791870,118.631493 
	C314.881989,119.437355 318.377197,119.494385 321.510193,118.845207 
	C322.461304,118.648117 323.248749,115.228439 323.257172,113.281090 
	C323.370697,86.952332 323.333466,60.622929 323.333435,34.293682 
	C323.333435,24.551603 323.333313,24.551603 312.580841,24.549984 
z"/>
<path fill="#41464E" opacity="1.000000" stroke="none" 
	d="
M431.701782,46.024799 
	C431.701660,73.007957 431.709351,99.495720 431.695801,125.983459 
	C431.692627,132.174042 425.814392,135.625168 420.537262,132.202454 
	C419.189301,131.328186 418.531952,128.530487 418.510742,126.605980 
	C418.349091,111.947884 418.425140,97.287193 418.424957,82.627312 
	C418.424652,61.137260 418.413452,39.647209 418.426819,18.157167 
	C418.430786,11.797587 418.776733,11.467605 425.266296,11.445971 
	C432.262970,11.422647 439.263153,11.307143 446.255646,11.480411 
	C454.311493,11.680029 457.856201,15.189416 457.874603,23.218323 
	C457.954071,57.868782 457.844452,92.519798 457.983948,127.169884 
	C458.005768,132.589676 455.013123,132.843658 450.909332,132.937210 
	C446.477356,133.038254 444.679688,131.593811 444.701874,126.902603 
	C444.851593,95.251274 444.782410,63.598907 444.777161,31.946878 
	C444.775970,24.864811 444.489014,24.576649 437.542725,24.563519 
	C434.211304,24.557222 430.879761,24.581650 427.548492,24.615501 
	C427.229401,24.618740 426.912018,24.788254 426.067963,25.033171 
	C433.752808,30.416012 431.223846,38.344620 431.701782,46.024799 
z"/>
<path fill="#3F434B" opacity="1.000000" stroke="none" 
	d="
M355.528503,132.821503 
	C346.266510,132.849930 346.266479,132.849930 346.266632,123.976822 
	C346.266785,113.481056 346.212891,102.984909 346.286530,92.489662 
	C346.334381,85.668289 347.724884,83.502670 353.814545,80.455833 
	C347.380646,77.653854 346.148712,72.419060 346.211456,66.229683 
	C346.375275,50.071194 346.406586,33.907993 346.181274,17.750990 
	C346.114044,12.928921 347.808563,11.211070 352.559601,11.382802 
	C358.959747,11.614142 359.481445,11.777363 359.495880,17.547421 
	C359.537567,34.207256 359.636230,50.868748 359.435577,67.526253 
	C359.377838,72.316025 361.056335,74.110695 365.839539,73.897530 
	C371.871460,73.628685 372.632965,73.202934 372.643219,67.444580 
	C372.672882,50.784683 372.831146,34.121716 372.549622,17.466534 
	C372.462677,12.323559 374.686829,11.336221 379.105774,11.367636 
	C383.390656,11.398098 385.980804,12.066402 385.900757,17.342033 
	C385.650635,33.831589 385.727539,50.327953 385.852234,66.820358 
	C385.897278,72.780708 384.453827,77.688255 378.060394,80.483459 
	C383.816223,82.302193 385.746704,86.389481 385.780243,91.527306 
	C385.858490,103.521957 385.706116,115.518700 385.854126,127.512039 
	C385.918060,132.691910 382.785187,132.873337 378.930969,132.904236 
	C375.085205,132.935028 372.513794,132.325699 372.594421,127.535919 
	C372.787872,116.043831 372.505005,104.543358 372.726135,93.052269 
	C372.818420,88.255867 371.093903,86.383118 366.276581,86.780571 
	C362.343262,87.105110 358.361786,86.846603 352.497650,86.846603 
	C359.931396,91.100143 359.546204,96.969460 359.520752,102.748398 
	C359.484802,110.911613 359.504089,119.075104 359.512146,127.238464 
	C359.514740,129.866837 359.356079,132.367065 355.528503,132.821503 
z"/>
<path fill="#3D424A" opacity="1.000000" stroke="none" 
	d="
M480.859436,104.986465 
	C480.859436,107.650421 480.858002,109.816780 480.859772,111.983147 
	C480.865387,118.878334 485.413422,122.002495 491.669006,119.115326 
	C492.788849,118.598473 493.790558,116.541100 493.825226,115.169212 
	C494.027283,107.175430 494.083435,99.167938 493.780975,91.180527 
	C493.725403,89.713310 492.074707,87.508034 490.683838,87.030235 
	C485.127747,85.121574 487.581726,80.689148 487.383392,77.298798 
	C487.174316,73.724976 490.138214,73.858948 492.729156,73.815712 
	C503.963684,73.628235 507.002106,76.570244 507.003571,87.750526 
	C507.005035,98.748985 507.041443,109.747612 506.991486,120.745850 
	C506.953430,129.121185 503.538025,132.647873 495.252380,132.817780 
	C489.755524,132.930496 484.249390,132.984009 478.756409,132.798340 
	C471.150177,132.541229 467.796051,129.194382 467.779602,121.608864 
	C467.708008,88.613663 467.703461,55.618092 467.787811,22.622948 
	C467.806763,15.214573 471.034393,11.865330 478.365631,11.542558 
	C484.352570,11.278974 490.370972,11.280900 496.356964,11.560399 
	C503.557098,11.896589 506.760864,15.425105 506.988220,22.698454 
	C507.076691,25.528637 507.261963,28.395599 506.919464,31.186451 
	C506.660614,33.295673 506.046478,36.741959 504.865753,37.082798 
	C502.015442,37.905609 498.597351,37.759979 495.712891,36.937042 
	C494.671112,36.639832 494.086060,33.313126 494.005219,31.339661 
	C493.744873,24.985739 493.474487,24.572254 487.139526,24.542261 
	C483.324188,24.524197 479.508698,24.538939 474.362915,24.538939 
	C480.688080,28.598572 480.896637,33.957611 480.882050,39.498074 
	C480.825012,61.161545 480.859161,82.825256 480.859436,104.986465 
z"/>
<path fill="#40454D" opacity="1.000000" stroke="none" 
	d="
M171.421570,24.552532 
	C169.845016,24.623888 168.716034,24.695322 166.546234,24.832609 
	C172.256332,28.404594 172.781387,33.365868 172.749069,38.607014 
	C172.688431,48.439445 172.888885,58.276047 172.665497,68.103745 
	C172.564621,72.541534 174.361389,73.955185 178.588470,73.886078 
	C185.325073,73.775955 188.219742,78.260216 185.362625,84.433891 
	C184.804901,85.639061 182.634506,86.484436 181.080399,86.750328 
	C178.813461,87.138176 176.431000,86.851189 174.097794,86.851494 
	C171.934570,86.851776 169.771362,86.851547 166.608398,86.851547 
	C175.970566,94.146324 172.047226,103.809525 172.641418,112.474426 
	C173.117126,119.411613 172.753296,119.438622 179.623154,119.446632 
	C184.289566,119.452072 188.961563,119.594528 193.620926,119.414124 
	C198.828033,119.212509 198.984909,122.458389 198.984131,126.311066 
	C198.983368,130.047440 198.622543,132.970474 193.778366,132.883636 
	C186.114563,132.746262 178.443344,132.984253 170.781158,132.807373 
	C163.181976,132.631958 159.589310,129.337692 159.554916,121.796745 
	C159.404480,88.799232 159.410904,55.800350 159.542053,22.802685 
	C159.572586,15.119933 162.963165,11.764980 170.515823,11.521064 
	C178.340607,11.268359 186.181534,11.560007 194.011993,11.421474 
	C199.510773,11.324190 198.883942,15.038509 198.961319,18.595127 
	C199.039993,22.211750 198.469254,24.761919 193.865967,24.614721 
	C186.540512,24.380484 179.202087,24.552446 171.421570,24.552532 
z"/>
<path fill="#3E434B" opacity="1.000000" stroke="none" 
	d="
M25.056454,79.000000 
	C25.055920,62.501938 24.906927,46.501652 25.146194,30.507179 
	C25.216795,25.787731 23.428980,24.369196 19.000162,24.475725 
	C12.637542,24.628769 9.536110,19.611725 12.334661,13.686418 
	C12.862048,12.569794 14.948573,11.596766 16.333359,11.572609 
	C26.495613,11.395331 36.662392,11.486608 46.827717,11.472207 
	C52.615501,11.464008 50.998291,15.778137 51.254860,19.000097 
	C51.534351,22.509850 50.665211,24.827736 46.387844,24.592186 
	C42.080326,24.354975 37.749557,24.539970 31.653423,24.539970 
	C39.227001,29.209272 38.141525,35.541790 38.145214,41.538692 
	C38.162537,69.701942 38.192360,97.865372 38.072342,126.028122 
	C38.063427,128.118988 37.353180,131.653137 36.199688,132.006714 
	C33.364784,132.875717 29.979959,132.714386 27.033587,132.030899 
	C26.038176,131.799973 25.155594,128.758667 25.139505,126.993355 
	C24.995239,111.163300 25.055916,95.331375 25.056454,79.000000 
z"/>
<path fill="#3F444C" opacity="1.000000" stroke="none" 
	d="
M408.753998,62.000061 
	C408.753906,83.647339 408.762085,104.794624 408.748718,125.941895 
	C408.744781,132.176605 402.987854,135.604553 397.629852,132.216309 
	C396.288574,131.368134 395.626556,128.557434 395.610413,126.640633 
	C395.461639,108.991409 395.524231,91.340401 395.524139,73.689919 
	C395.524078,55.539890 395.519714,37.389862 395.523468,19.239834 
	C395.525024,11.647472 395.723969,11.425662 402.248413,11.453953 
	C408.399445,11.480624 408.750854,11.886129 408.752319,19.039036 
	C408.755249,33.192711 408.753723,47.346382 408.753998,62.000061 
z"/>
<path fill="#3C4149" opacity="1.000000" stroke="none" 
	d="
M61.098850,88.999985 
	C61.098869,65.033707 61.049843,41.567150 61.184364,18.101645 
	C61.196171,16.042494 62.052250,12.478919 63.135212,12.221845 
	C66.222862,11.488892 69.688667,11.801141 72.867905,12.415318 
	C73.595863,12.555950 74.135880,15.560985 74.143372,17.250477 
	C74.229668,36.722099 74.195656,56.194256 74.195572,75.666267 
	C74.195496,92.641869 74.049980,109.619583 74.291939,126.591759 
	C74.361938,131.501892 72.571167,133.099915 67.869308,132.903870 
	C61.834698,132.652252 61.117027,132.225067 61.106190,126.446869 
	C61.083092,114.131287 61.098949,101.815620 61.098850,88.999985 
z"/>
<path fill="#FCFCFC" opacity="1.000000" stroke="none" 
	d="
M261.664246,72.013885 
	C261.302338,60.011562 261.468964,48.355942 260.921326,36.733982 
	C260.736115,32.802914 258.743286,28.957020 257.486511,24.772530 
	C261.265625,24.772530 266.427521,24.588659 271.552856,24.939468 
	C272.492188,25.003765 274.013855,27.232065 274.029907,28.477419 
	C274.208069,42.295506 274.210907,56.117657 274.025818,69.935562 
	C274.009155,71.177124 272.372253,73.421333 271.451111,73.440529 
	C268.280640,73.506607 265.093933,72.791321 261.664246,72.013885 
z"/>
<path fill="#FDFDFD" opacity="1.000000" stroke="none" 
	d="
M261.027435,96.498032 
	C259.503998,93.096786 258.007965,90.137062 256.364563,86.885857 
	C260.705811,86.885857 265.742737,86.667427 270.734802,87.043785 
	C271.940033,87.134659 273.932281,89.161552 273.972107,90.351402 
	C274.255798,98.823265 274.278076,107.314537 273.965424,115.784195 
	C273.918793,117.048050 271.809265,119.107918 270.436432,119.308258 
	C261.915955,120.551682 261.086365,119.670639 261.081390,110.909096 
	C261.078766,106.252579 261.064056,101.596062 261.027435,96.498032 
z"/>
<path fill="#FBFBFB" opacity="1.000000" stroke="none" 
	d="
M313.058105,24.549864 
	C323.333313,24.551603 323.333435,24.551603 323.333435,34.293682 
	C323.333466,60.622929 323.370697,86.952332 323.257172,113.281090 
	C323.248749,115.228439 322.461304,118.648117 321.510193,118.845207 
	C318.377197,119.494385 314.881989,119.437355 311.791870,118.631493 
	C310.835541,118.382095 310.304840,114.878387 310.296692,112.861763 
	C310.196808,88.032692 310.203857,63.203033 310.250916,38.373653 
	C310.260498,33.301815 310.048920,28.414957 305.325348,24.549984 
	C307.743835,24.549984 310.162354,24.549984 313.058105,24.549864 
z"/>
</svg>